<?xml version="1.0" encoding="UTF-8" standalone="no"?>
<svg
   xmlns:dc="http://purl.org/dc/elements/1.1/"
   xmlns:cc="http://creativecommons.org/ns#"
   xmlns:rdf="http://www.w3.org/1999/02/22-rdf-syntax-ns#"
   xmlns:svg="http://www.w3.org/2000/svg"
   xmlns="http://www.w3.org/2000/svg"
   id="svg4"
   version="1.1"
   viewBox="0 0 24 24"
   height="24"
   width="24">
  <metadata
     id="metadata10">
    <rdf:RDF>
      <cc:Work
         rdf:about="">
        <dc:format>image/svg+xml</dc:format>
        <dc:type
           rdf:resource="http://purl.org/dc/dcmitype/StillImage" />
        <dc:title></dc:title>
      </cc:Work>
    </rdf:RDF>
  </metadata>
  <defs
     id="defs8" />
  <path
     style="fill:#ffffff"
     id="path2"
     d="M9 19h-4v-2h4v2zm2.946-4.036l3.107 3.105-4.112.931 1.005-4.036zm12.054-5.839l-7.898 7.996-3.202-3.202 7.898-7.995 3.202 3.201zm-6 8.92v3.955h-16v-18h4l2.102 2h3.898l2-2h4v1.911l2-2.024v-1.887h-3c-1.229 0-2.18-1.084-3-2h-8c-.82.916-1.771 2-3 2h-3v22h20v-7.98l-2 2.025zm-8-16.045c.552 0 1 .448 1 1s-.448 1-1 1-1-.448-1-1 .448-1 1-1z" />
</svg>
